<?xml version="1.0" encoding="UTF-8" standalone="no"?>
<!-- Created with Inkscape (http://www.inkscape.org/) -->
<svg
   xmlns:svg="http://www.w3.org/2000/svg"
   xmlns="http://www.w3.org/2000/svg"
   version="1.0"
   width="400"
   height="400"
   id="svg4611">
  <defs
     id="defs4613" />
  <g
     transform="translate(-256.6798,-531.7963)"
     id="layer1">
    <path
       d="M 402.72333,925.91455 L 370.49677,925.91455 C 375.18424,903.90928 377.52799,883.98742 377.52802,866.14893 L 377.52802,653.45361 C 377.52799,631.31841 379.48111,614.84707 383.38739,604.03955 C 387.42381,593.23251 395.1712,583.72731 406.62958,575.52393 C 418.21805,567.19087 432.67116,563.0242 449.98895,563.02393 C 470.56175,563.0242 487.81433,568.49295 501.74677,579.43018 C 515.8091,590.23772 522.84034,605.66739 522.84052,625.71924 C 522.84034,649.15693 511.70754,668.36264 489.44208,683.33643 C 522.64503,698.96157 539.24657,723.50581 539.24677,756.96924 C 539.24657,775.19847 534.8195,791.5396 525.96552,805.99268 C 517.24139,820.31561 507.08515,830.53696 495.49677,836.65674 C 484.0383,842.77653 470.30133,845.83642 454.28583,845.83643 C 436.05657,845.83642 421.21284,839.00049 409.75458,825.32861 L 409.75458,861.65674 C 409.75452,886.65669 407.41077,908.07594 402.72333,925.91455 M 409.75458,807.75049 C 419.91076,824.54738 434.10345,832.94581 452.3327,832.9458 C 469.91071,832.94581 482.80132,826.56561 491.00458,813.80518 C 499.20755,800.91459 503.30911,785.28961 503.30927,766.93018 C 503.30911,752.86776 500.57474,738.54486 495.10614,723.96143 C 489.76746,709.24802 482.86642,698.05011 474.40302,690.36768 C 466.5904,692.32095 459.55915,693.29751 453.30927,693.29736 C 440.15813,693.29751 433.58262,689.84699 433.5827,682.9458 C 433.58262,676.69596 439.11647,673.57097 450.18427,673.5708 C 457.0852,673.57097 465.67894,675.13347 475.96552,678.2583 C 485.21017,662.63348 489.83256,645.64131 489.8327,627.28174 C 489.83256,610.87572 486.18673,598.31063 478.8952,589.58643 C 471.73362,580.86273 462.35863,576.50075 450.7702,576.50049 C 441.52532,576.50075 433.58262,579.10492 426.94208,584.31299 C 420.43159,589.52157 415.93941,595.77157 413.46552,603.06299 C 410.99149,610.22468 409.75452,622.00852 409.75458,638.41455 L 409.75458,807.75049"
       id="text5540"
       style="font-size:400px;font-style:normal;font-weight:normal;text-align:start;text-anchor:start;fill:#000000;fill-opacity:1;stroke:none;stroke-width:1px;stroke-linecap:butt;stroke-linejoin:miter;stroke-opacity:1;font-family:Times New Roman" />
  </g>
</svg>
