<?xml version="1.0" encoding="UTF-8" standalone="no"?>
<!-- Created with Inkscape (http://www.inkscape.org/) -->

<svg
   xmlns:dc="http://purl.org/dc/elements/1.1/"
   xmlns:cc="http://creativecommons.org/ns#"
   xmlns:rdf="http://www.w3.org/1999/02/22-rdf-syntax-ns#"
   xmlns:svg="http://www.w3.org/2000/svg"
   xmlns="http://www.w3.org/2000/svg"
   xmlns:sodipodi="http://sodipodi.sourceforge.net/DTD/sodipodi-0.dtd"
   xmlns:inkscape="http://www.inkscape.org/namespaces/inkscape"
   width="837"
   height="222"
   id="svg2"
   version="1.1"
   inkscape:version="0.48.1 "
   sodipodi:docname="Kopia Starogrecka omega z prosgeramenos, perispomenos i dasia.svg">
  <defs
     id="defs4" />
  <sodipodi:namedview
     id="base"
     pagecolor="#ffffff"
     bordercolor="#666666"
     borderopacity="1.0"
     inkscape:pageopacity="0.0"
     inkscape:pageshadow="2"
     inkscape:zoom="0.7"
     inkscape:cx="512.95351"
     inkscape:cy="194.11935"
     inkscape:document-units="px"
     inkscape:current-layer="layer1"
     showgrid="false"
     inkscape:window-width="1024"
     inkscape:window-height="678"
     inkscape:window-x="-4"
     inkscape:window-y="-4"
     inkscape:window-maximized="1" />
  <metadata
     id="metadata7">
    <rdf:RDF>
      <cc:Work
         rdf:about="">
        <dc:format>image/svg+xml</dc:format>
        <dc:type
           rdf:resource="http://purl.org/dc/dcmitype/StillImage" />
        <dc:title />
      </cc:Work>
    </rdf:RDF>
  </metadata>
  <g
     inkscape:label="Layer 1"
     inkscape:groupmode="layer"
     id="layer1"
     transform="translate(0,-830.36218)">
    <g
       transform="translate(-1.4285714,810.07646)"
       style="font-size:10px;font-style:normal;font-variant:normal;font-weight:normal;font-stretch:normal;text-align:start;line-height:125%;letter-spacing:0px;word-spacing:0px;writing-mode:lr-tb;text-anchor:start;fill:#000000;fill-opacity:1;stroke:none;font-family:Times New Roman;-inkscape-font-specification:Sans"
       id="flowRoot2990">
      <path
         d="m 191.51855,220.70529 -69.82421,0 0,-20.01953 c 30.51743,-15.4622 45.77621,-40.039 45.77636,-73.73047 -1.5e-4,-20.42632 -5.47297,-36.865102 -16.41845,-49.316404 C 140.10648,65.187869 125.51909,58.96229 107.29004,58.962128 88.979413,58.96229 74.351335,65.187869 63.405762,77.638886 52.460081,90.090188 46.987268,106.52897 46.987305,126.95529 c -3.7e-5,33.69147 15.258737,58.26827 45.776367,73.73047 l 0,20.01953 -69.824219,0 0,-21.24023 39.306641,0 C 35.71612,178.46901 22.451159,152.95634 22.451172,122.92697 22.451159,98.675792 30.202617,78.5749 45.705566,62.624237 61.208445,46.67389 81.736582,38.698638 107.29004,38.698456 c 25.47188,1.82e-4 45.95933,7.975434 61.4624,23.925781 15.50276,15.950663 23.25421,36.051555 23.2544,60.302733 -1.9e-4,30.02937 -13.26515,55.54204 -39.79493,76.53809 l 39.30664,0 z"
         style="font-size:250px;font-family:Microsoft Sans Serif;-inkscape-font-specification:Microsoft Sans Serif"
         id="path3080" />
    </g>
    <g
       transform="translate(221.34243,808.3746)"
       style="font-size:10px;font-style:normal;font-variant:normal;font-weight:normal;font-stretch:normal;text-align:start;line-height:125%;letter-spacing:0px;word-spacing:0px;writing-mode:lr-tb;text-anchor:start;fill:#000000;fill-opacity:1;stroke:none;font-family:Times New Roman;-inkscape-font-specification:Sans"
       id="flowRoot2990-2">
      <path
         d="m 155.50781,91.18869 c 12.1255,23.11209 18.18832,45.45093 18.18848,67.0166 -1.6e-4,21.07752 -3.96745,37.27216 -11.90186,48.58399 -7.93471,11.31185 -18.69723,16.96777 -32.28759,16.96777 -17.90375,0 -28.97145,-9.76562 -33.203129,-29.29688 -4.313233,19.53126 -15.42162,29.29688 -33.325195,29.29688 -13.590535,0 -24.353056,-5.65592 -32.287598,-16.96777 -7.934583,-11.31183 -11.901864,-27.50647 -11.901856,-48.58399 -8e-6,-21.56567 6.062811,-43.90451 18.188477,-67.0166 l 22.216797,0 c -11.637407,24.00727 -17.456086,46.59025 -17.456055,67.74902 -3.1e-5,31.16865 7.934531,46.75295 23.803711,46.75293 12.776625,2e-5 19.164965,-13.26494 19.165039,-39.79492 l 0,-42.23633 23.071289,0 0,42.23633 c -10e-5,26.52998 6.38824,39.79494 19.16504,39.79492 15.86901,2e-5 23.80357,-15.58428 23.80371,-46.75293 -1.4e-4,-21.15877 -5.81882,-43.74175 -17.45605,-67.74902 z"
         style="font-size:250px;font-family:Microsoft Sans Serif;-inkscape-font-specification:Microsoft Sans Serif"
         id="path3083" />
    </g>
    <g
       transform="translate(437.05671,816.94602)"
       style="font-size:10px;font-style:normal;font-variant:normal;font-weight:normal;font-stretch:normal;text-align:start;line-height:125%;letter-spacing:0px;word-spacing:0px;writing-mode:lr-tb;text-anchor:start;fill:#000000;fill-opacity:1;stroke:none;font-family:Times New Roman;-inkscape-font-specification:Sans"
       id="flowRoot2990-8">
      <path
         d="m 17.324219,174.09678 4.516601,0 c 0.325509,5.77803 2.034492,9.80634 5.126953,12.08496 3.092428,2.27867 8.015926,3.41799 14.770508,3.41797 l 33.325196,0 -0.244141,-8.17871 C 61.879831,178.81687 50.079713,171.61472 39.418945,159.81455 28.758119,148.01449 23.427721,133.12192 23.427734,115.13682 23.427721,95.198786 30.853658,78.190339 45.705566,64.111429 60.557404,50.032815 79.946219,42.993434 103.87207,42.993265 c 23.19324,1.69e-4 42.15481,6.652994 56.88477,19.958496 14.72965,13.3058 22.09455,30.334592 22.09472,51.086429 -1.7e-4,16.84578 -4.5778,31.14834 -13.73291,42.90771 -9.15542,11.75949 -21.54555,19.91784 -37.17041,24.4751 l -1.2207,8.17871 33.93555,0 c 7.73095,2e-5 12.83756,-1.46482 15.31982,-4.39453 2.48192,-2.92966 3.80435,-6.63245 3.96729,-11.1084 l 4.5166,0 0,38.20801 -68.35938,0 3.17383,-36.86524 c 20.99596,-6.59175 31.494,-26.00091 31.49414,-58.22754 -1.4e-4,-21.077353 -5.14744,-37.231308 -15.44189,-48.461909 -10.29472,-11.230314 -22.35932,-16.845543 -36.19385,-16.845703 -14.729898,1.6e-4 -26.916572,5.961254 -36.56006,17.8833 -9.643602,11.922331 -14.465374,27.16076 -14.465332,45.715332 -4.2e-5,13.42782 2.156531,25.65518 6.469726,36.68213 4.313099,11.02707 12.573181,18.77852 24.780274,23.25439 l 2.319336,36.86524 -68.359375,0 z"
         style="font-size:250px;font-family:Times New Roman;-inkscape-font-specification:Times New Roman"
         id="path3086" />
    </g>
    <g
       transform="translate(645.1859,814.88931)"
       style="font-size:10px;font-style:normal;font-variant:normal;font-weight:normal;font-stretch:normal;text-align:start;line-height:125%;letter-spacing:0px;word-spacing:0px;writing-mode:lr-tb;text-anchor:start;fill:#000000;fill-opacity:1;stroke:none;font-family:Times New Roman;-inkscape-font-specification:Sans"
       id="flowRoot2990-2-0">
      <path
         d="m 92.397461,191.55284 c -7.080154,16.11328 -17.90371,24.16991 -32.470703,24.16992 -10.172566,-1e-5 -19.510936,-4.69971 -28.015137,-14.09912 -8.504245,-9.3994 -12.756357,-22.92884 -12.756348,-40.58838 -9e-6,-14.48561 2.54312,-26.30608 7.629395,-35.46143 5.086241,-9.15518 11.739066,-16.17421 19.958496,-21.05713 8.219356,-4.882698 19.164983,-7.324101 32.836914,-7.324216 l 0,4.516606 c -12.044328,1.1e-4 -21.403043,4.96429 -28.076172,14.89257 -6.673212,9.92847 -10.009797,24.00724 -10.009765,42.23633 -3.2e-5,18.47334 2.176887,31.12795 6.530761,37.96387 4.353799,6.83594 9.501092,10.25391 15.441895,10.2539 3.824812,1e-5 7.547953,-1.18 11.169433,-3.54003 3.621351,-2.36002 6.16448,-4.86246 7.629395,-7.50733 1.46477,-2.64484 3.702724,-8.07696 6.713867,-16.29639 -5.127027,-10.74214 -7.690501,-22.09467 -7.69043,-34.05761 -7.1e-5,-18.1477 3.702725,-27.22159 11.108399,-27.22168 7.405509,9e-5 11.108309,8.38224 11.108399,25.14648 -9e-5,11.55605 -2.68564,23.60031 -8.056641,36.13281 5.859281,18.22919 14.241441,27.34376 25.146481,27.34375 6.1034,1e-5 11.37277,-3.19416 15.80811,-9.58251 4.43509,-6.38833 6.6527,-18.45293 6.65283,-36.19385 -1.3e-4,-14.81113 -1.44463,-26.14332 -4.3335,-33.99658 -2.88912,-7.8531 -7.18192,-13.9973 -12.87841,-18.43262 -5.69673,-4.43512 -12.65473,-6.81548 -20.87403,-7.14111 l 0,-4.516606 c 13.67177,1.15e-4 24.6174,2.482209 32.83692,7.446286 8.21926,4.9643 14.85174,11.96299 19.89746,20.9961 5.04542,9.03328 7.5682,20.71133 7.56836,35.03418 -1.6e-4,17.90368 -4.08951,31.55519 -12.26807,40.95459 -8.17884,9.39941 -17.72066,14.09911 -28.62549,14.09912 -14.97405,-1e-5 -25.634852,-8.05664 -31.982419,-24.16992 z"
         style="font-size:250px;font-family:Times New Roman;-inkscape-font-specification:Times New Roman"
         id="path3089" />
    </g>
  </g>
</svg>
